<?xml version="1.0" encoding="utf-8"?>
<!-- Generator: Adobe Illustrator 19.1.0, SVG Export Plug-In . SVG Version: 6.00 Build 0)  -->
<svg version="1.1" xmlns="http://www.w3.org/2000/svg" xmlns:xlink="http://www.w3.org/1999/xlink" x="0px" y="0px"
	 viewBox="0 0 140 140" enable-background="new 0 0 140 140" xml:space="preserve">
<g id="Gruppe_2_1_">
</g>
<g id="Gruppe_3_1_">
</g>
<g id="Gruppe_4_1_">
	<g id="Rechteck_5">
		<g>
			<rect x="2.5" y="2.5" width="135" height="135"/>
		</g>
		<g>
			<path fill="#FFDD00" d="M135,5v130H5V5H135 M140,0H0v140h140V0L140,0z"/>
		</g>
	</g>
	<g id="MC">
		<g>
			<path fill="#FFDD00" d="M50.2,73.1L37.6,57.3h-5.4v26.1h4.3V62.1h0.1l13.4,17l13.5-17h0.1v21.3h4.3V57.3h-5.4L50.2,73.1z
				 M92.5,80.2c-7.7,0-12.5-4-12.5-9.9c0-5.7,4.9-9.8,12.2-9.8c4.8,0,8.4,1.3,11.1,4.2l3.9-1.4c-3.4-4.4-8.6-6.8-15-6.8
				c-4.5,0-8.5,1.3-11.4,3.5c-3.5,2.7-5.3,6.1-5.3,10.3c0,4.2,1.7,7.7,5.2,10.4c2.8,2.2,6.9,3.5,11.5,3.5c6.5,0,11.1-1.8,14.8-6.2
				l-3.7-2.1C100.6,78.9,97.1,80.2,92.5,80.2z"/>
		</g>
	</g>
</g>
<g id="Gruppe_5_1_">
</g>
</svg>
