<?xml version="1.0" encoding="utf-8"?>
<!-- Generator: Adobe Illustrator 20.0.0, SVG Export Plug-In . SVG Version: 6.00 Build 0)  -->
<svg version="1.1" id="Ebene_1" xmlns="http://www.w3.org/2000/svg" xmlns:xlink="http://www.w3.org/1999/xlink" x="0px" y="0px"
	 viewBox="0 0 551.1 80.3" style="enable-background:new 0 0 551.1 80.3;" xml:space="preserve">
<style type="text/css">
	.st0{enable-background:new; fill:#ffffff;}
	.st1{fill:#ffffff;}
</style>
<title>Zeichenfläche 1</title>
<g class="st0">
	<path class="st1" d="M161.9,47.8V15h-0.2l-20.9,26.2L120.1,15H120v32.8h-6.7V7.7h8.3l19.3,24.3l19.4-24.3h8.3v40.2H161.9z"/>
	<path class="st1" d="M205.6,49c-14.1,0-22.8-6-22.8-14.2V7.7h6.7v25.6c0,6.2,5.5,9.7,16.1,9.7c10.5,0,16-3.5,16-9.7V7.7h6.7v27.2
		C228.3,43,219.6,49,205.6,49z"/>
</g>
<g class="st0">
	<path class="st1" d="M242.2,47.8V7.7h6.7v34.1h31v6H242.2z"/>
</g>
<g class="st0">
	<path class="st1" d="M296.5,13.7v34.1h-6.7V13.7h-19.2v-6h45v6H296.5z"/>
</g>
<g class="st0">
	<path class="st1" d="M323.7,47.8V7.7h6.7v40.2H323.7z"/>
</g>
<g class="st0">
	<path class="st1" d="M385.5,19c-4.2-4.5-9.7-6.5-17.1-6.5c-11.2,0-18.8,6.4-18.8,15.1c0,9,7.3,15.2,19.2,15.2
		c7.2,0,12.5-2,16.8-6.6l5.7,3.2c-5.8,6.8-12.9,9.5-22.9,9.5c-7,0-13.3-2-17.7-5.3c-5.4-4-8-9.4-8-16c0-6.4,2.7-11.8,8.2-15.9
		c4.4-3.4,10.7-5.4,17.6-5.4c9.9,0,17.9,3.6,23.1,10.4L385.5,19z"/>
</g>
<g class="st0">
	<path class="st1" d="M440.1,47.8l-4.7-9h-27l-4.7,9h-7.3l21.2-40.2h8.4l21.2,40.2H440.1z M421.9,13.4l-10.3,19.4h20.5L421.9,13.4z"
		/>
</g>
<g class="st0">
	<path class="st1" d="M470.5,12.5c-8.3,0-12.7,2.1-12.7,5.4c0,1.8,1.2,3.1,3.5,3.9c4.4,1.6,11,1.1,19.1,2.1
		c10,1.3,14.8,4.7,14.8,11.4c0,8.4-7.7,13.4-21.9,13.4c-10.2,0-18.1-2.2-23.9-6.8l3.7-4.8c6.4,3.9,13,5.8,20.3,5.8
		c9.5,0,14.6-2.8,14.6-7.1c0-5.7-6.8-5.7-18.6-6.5c-12.4-0.8-18.6-2.8-18.6-10.5c0-7.5,7.2-12.2,20.2-12.2c8.7,0,15.9,2,21.7,5.9
		l-4,4.5C482.7,14,476.8,12.5,470.5,12.5z"/>
</g>
<g class="st0">
	<path class="st1" d="M523.3,13.7v34.1h-6.7V13.7h-19.2v-6h45v6H523.3z"/>
</g>
<g class="st0">
	<path class="st1" d="M119.9,68.4h-5.5v6h6.1v0.8h-7.1V61.5h6.8v0.8h-5.8v5.3h5.5V68.4z"/>
	<path class="st1" d="M129.8,67.8c0-0.9,0-1.6-0.1-2.3h0.9l0.1,1.8h0c0.5-1.1,1.7-2,3.4-2c0.9,0,3.4,0.5,3.4,4.1v5.9h-1v-5.8
		c0-1.8-0.7-3.4-2.7-3.4c-1.4,0-2.5,1-2.9,2.2c-0.1,0.2-0.1,0.6-0.1,0.9v6h-1V67.8z"/>
	<path class="st1" d="M147.6,60.8h1v6.4h0c0.3-0.6,0.8-1.1,1.3-1.4c0.5-0.3,1.2-0.6,2-0.6c0.9,0,3.4,0.5,3.4,4.1v5.9h-1v-5.8
		c0-1.8-0.7-3.4-2.7-3.4c-1.4,0-2.5,1-2.9,2.2c-0.1,0.3-0.1,0.6-0.1,1v6h-1V60.8z"/>
	<path class="st1" d="M170.8,75.2l-0.1-1.4h-0.1c-0.5,0.8-1.5,1.6-3.1,1.6c-2,0-2.9-1.4-2.9-2.7c0-2.3,2-3.6,6-3.6v-0.2
		c0-1-0.2-2.9-2.5-2.9c-0.9,0-1.7,0.2-2.4,0.7l-0.3-0.7c0.9-0.6,2-0.8,2.8-0.8c2.8,0,3.4,2.1,3.4,3.9v3.8c0,0.8,0,1.6,0.1,2.3H170.8
		z M170.6,70c-2.1-0.1-4.9,0.3-4.9,2.6c0,1.4,0.9,2,2,2c1.6,0,2.5-1,2.9-2c0.1-0.2,0.1-0.4,0.1-0.6V70z"/>
	<path class="st1" d="M181.6,67.8c0-0.9,0-1.6-0.1-2.3h0.9l0.1,1.8h0c0.5-1.1,1.7-2,3.4-2c0.9,0,3.4,0.5,3.4,4.1v5.9h-1v-5.8
		c0-1.8-0.7-3.4-2.7-3.4c-1.4,0-2.5,1-2.9,2.2c-0.1,0.2-0.1,0.6-0.1,0.9v6h-1V67.8z"/>
	<path class="st1" d="M206.2,74.8c-0.4,0.2-1.4,0.6-2.8,0.6c-2.8,0-4.7-2-4.7-5c0-3.1,2.1-5.2,5-5.2c1.2,0,2.2,0.3,2.6,0.6l-0.3,0.8
		c-0.5-0.3-1.2-0.6-2.3-0.6c-2.6,0-4,2-4,4.3c0,2.5,1.6,4.2,3.9,4.2c1.2,0,1.9-0.3,2.4-0.5L206.2,74.8z"/>
	<path class="st1" d="M216.7,62.7c0,0.4-0.3,0.8-0.8,0.8c-0.4,0-0.8-0.4-0.8-0.8s0.3-0.9,0.8-0.9C216.4,61.8,216.7,62.2,216.7,62.7z
		 M215.4,75.2v-9.8h1v9.8H215.4z"/>
	<path class="st1" d="M226.6,67.8c0-0.9,0-1.6-0.1-2.3h0.9l0.1,1.8h0c0.5-1.1,1.7-2,3.4-2c0.9,0,3.4,0.5,3.4,4.1v5.9h-1v-5.8
		c0-1.8-0.7-3.4-2.7-3.4c-1.4,0-2.5,1-2.9,2.2c-0.1,0.2-0.1,0.6-0.1,0.9v6h-1V67.8z"/>
	<path class="st1" d="M252.3,65.5c0,0.7-0.1,1.5-0.1,2.5v5.8c0,2.5-0.5,3.7-1.3,4.5c-0.9,0.9-2.2,1.2-3.3,1.2
		c-1.1,0-2.4-0.3-3.1-0.8l0.3-0.8c0.7,0.4,1.6,0.8,2.9,0.8c2.1,0,3.5-1.1,3.5-3.9v-1.4h0c-0.5,1-1.6,1.9-3.4,1.9
		c-2.5,0-4.2-2.1-4.2-4.8c0-3.4,2.2-5.2,4.4-5.2c1.9,0,2.9,1.1,3.3,1.9h0l0-1.6H252.3z M251.2,69.2c0-0.3,0-0.7-0.1-0.9
		c-0.4-1.2-1.4-2.2-3-2.2c-2.1,0-3.5,1.7-3.5,4.3c0,2.2,1.2,4.1,3.5,4.1c1.3,0,2.5-0.8,3-2.2c0.1-0.3,0.2-0.7,0.2-1V69.2z"/>
</g>
<g class="st0">
	<path class="st1" d="M286.8,74.7c-0.7,0.4-2,0.7-3.7,0.7c-3.3,0-6.5-2.1-6.5-7c0-4.1,2.6-7.2,6.9-7.2c1.7,0,2.8,0.4,3.2,0.6
		l-0.3,0.8c-0.7-0.3-1.7-0.6-2.8-0.6c-3.7,0-6,2.4-6,6.3c0,3.7,2.1,6.1,5.8,6.1c1.2,0,2.3-0.2,3.1-0.6L286.8,74.7z"/>
</g>
<g class="st0">
	<path class="st1" d="M304.3,70.2c0,3.7-2.5,5.2-4.7,5.2c-2.5,0-4.5-2-4.5-5c0-3.4,2.2-5.2,4.6-5.2
		C302.5,65.2,304.3,67.3,304.3,70.2z M296.2,70.4c0,2.4,1.6,4.3,3.6,4.3c2,0,3.6-1.8,3.6-4.3c0-1.8-1-4.3-3.6-4.3
		C297.3,66,296.2,68.3,296.2,70.4z"/>
	<path class="st1" d="M313.7,67.8c0-0.9,0-1.6-0.1-2.3h0.9l0.1,1.8h0c0.5-1.1,1.8-2,3.4-2c0.9,0,3.4,0.5,3.4,4.1v5.9h-1v-5.8
		c0-1.8-0.7-3.4-2.7-3.4c-1.4,0-2.5,1-2.9,2.2c-0.1,0.2-0.1,0.6-0.1,0.9v6h-1V67.8z"/>
</g>
<g class="st0">
	<path class="st1" d="M333,62.6v2.8h2.8v0.8H333v6.3c0,1.2,0.4,2,1.4,2c0.5,0,0.9-0.1,1.1-0.2l0.1,0.8c-0.3,0.1-0.8,0.2-1.4,0.2
		c-0.7,0-1.3-0.2-1.7-0.7c-0.4-0.5-0.6-1.3-0.6-2.3v-6.2h-1.6v-0.8h1.6v-2.5L333,62.6z"/>
</g>
<g class="st0">
	<path class="st1" d="M345,70.2c0,3.1,1.7,4.4,3.7,4.4c1.4,0,2.2-0.3,2.7-0.5l0.2,0.8c-0.4,0.2-1.4,0.6-3.1,0.6
		c-2.8,0-4.6-2-4.6-4.9c0-3.3,1.9-5.3,4.4-5.3c3.2,0,3.8,3,3.8,4.4c0,0.3,0,0.4,0,0.6H345z M351.2,69.5c0-1.4-0.5-3.4-2.9-3.4
		c-2.2,0-3.1,1.9-3.3,3.4H351.2z"/>
	<path class="st1" d="M361.6,67.8c0-0.9,0-1.6-0.1-2.3h0.9l0.1,1.8h0c0.5-1.1,1.7-2,3.4-2c0.9,0,3.4,0.5,3.4,4.1v5.9h-1v-5.8
		c0-1.8-0.7-3.4-2.7-3.4c-1.4,0-2.5,1-2.9,2.2c-0.1,0.2-0.1,0.6-0.1,0.9v6h-1V67.8z"/>
	<path class="st1" d="M380.7,62.6v2.8h2.8v0.8h-2.8v6.3c0,1.2,0.4,2,1.4,2c0.5,0,0.9-0.1,1.1-0.2l0.1,0.8c-0.3,0.1-0.8,0.2-1.4,0.2
		c-0.7,0-1.3-0.2-1.7-0.7c-0.4-0.5-0.6-1.3-0.6-2.3v-6.2h-1.6v-0.8h1.6v-2.5L380.7,62.6z"/>
</g>
<g class="st0">
	<path class="st1" d="M419,68.7c-0.1-2.1-0.3-4.6-0.3-6.1h-0.1c-0.5,1.5-1.1,3.1-1.8,5.1l-2.9,7.5h-0.7l-2.7-7.3
		c-0.8-2.1-1.4-3.8-1.8-5.3h-0.1c0,1.6-0.1,4-0.3,6.3l-0.4,6.3h-1l1-13.7h1.1l2.9,7.9c0.6,1.8,1.1,3.1,1.5,4.5h0
		c0.4-1.3,0.9-2.6,1.5-4.4l3.1-7.9h1.2l0.9,13.7h-1L419,68.7z"/>
</g>
<g class="st0">
	<path class="st1" d="M435.7,75.2l-0.1-1.4h-0.1c-0.5,0.8-1.5,1.6-3.1,1.6c-2,0-2.9-1.4-2.9-2.7c0-2.3,2-3.6,6-3.6v-0.2
		c0-1-0.2-2.9-2.5-2.9c-0.9,0-1.7,0.2-2.4,0.7l-0.3-0.7c0.9-0.6,2-0.8,2.8-0.8c2.8,0,3.4,2.1,3.4,3.9v3.8c0,0.8,0,1.6,0.1,2.3H435.7
		z M435.5,70c-2.1-0.1-4.9,0.3-4.9,2.6c0,1.4,0.9,2,2,2c1.6,0,2.5-1,2.9-2c0.1-0.2,0.1-0.4,0.1-0.6V70z"/>
</g>
<g class="st0">
	<path class="st1" d="M446.6,68.4c0-1,0-2-0.1-2.9h0.9l0,2h0c0.4-1.2,1.4-2.2,2.8-2.2c0.1,0,0.3,0,0.4,0v0.9c-0.1,0-0.3,0-0.5,0
		c-1.3,0-2.3,1.2-2.6,2.7c0,0.3-0.1,0.6-0.1,0.9v5.4h-1V68.4z"/>
</g>
<g class="st0">
	<path class="st1" d="M460.7,70.2L460.7,70.2c0.3-0.3,0.7-0.8,1-1.1l3.4-3.6h1.2l-3.9,4l4.5,5.7h-1.2l-4-5.1l-1,1.1v4.1h-1V60.8h1
		V70.2z"/>
</g>
<g class="st0">
	<path class="st1" d="M475.7,70.2c0,3.1,1.7,4.4,3.7,4.4c1.4,0,2.2-0.3,2.7-0.5l0.2,0.8c-0.4,0.2-1.4,0.6-3.1,0.6
		c-2.8,0-4.6-2-4.6-4.9c0-3.3,1.9-5.3,4.4-5.3c3.2,0,3.8,3,3.8,4.4c0,0.3,0,0.4,0,0.6H475.7z M481.9,69.5c0-1.4-0.5-3.4-2.9-3.4
		c-2.2,0-3.1,1.9-3.3,3.4H481.9z"/>
	<path class="st1" d="M493.6,62.6v2.8h2.8v0.8h-2.8v6.3c0,1.2,0.4,2,1.4,2c0.5,0,0.9-0.1,1.1-0.2l0.1,0.8c-0.3,0.1-0.8,0.2-1.4,0.2
		c-0.7,0-1.3-0.2-1.7-0.7c-0.4-0.5-0.6-1.3-0.6-2.3v-6.2H491v-0.8h1.6v-2.5L493.6,62.6z"/>
	<path class="st1" d="M506.8,62.7c0,0.4-0.3,0.8-0.8,0.8c-0.4,0-0.8-0.4-0.8-0.8s0.3-0.9,0.8-0.9C506.5,61.8,506.8,62.2,506.8,62.7z
		 M505.5,75.2v-9.8h1v9.8H505.5z"/>
	<path class="st1" d="M516.7,67.8c0-0.9,0-1.6-0.1-2.3h0.9l0.1,1.8h0c0.5-1.1,1.7-2,3.4-2c0.9,0,3.4,0.5,3.4,4.1v5.9h-1v-5.8
		c0-1.8-0.7-3.4-2.7-3.4c-1.4,0-2.5,1-2.9,2.2c-0.1,0.2-0.1,0.6-0.1,0.9v6h-1V67.8z"/>
	<path class="st1" d="M542.3,65.5c0,0.7-0.1,1.5-0.1,2.5v5.8c0,2.5-0.5,3.7-1.3,4.5c-0.9,0.9-2.2,1.2-3.3,1.2
		c-1.1,0-2.4-0.3-3.1-0.8l0.3-0.8c0.7,0.4,1.6,0.8,2.9,0.8c2.1,0,3.5-1.1,3.5-3.9v-1.4h0c-0.5,1-1.6,1.9-3.4,1.9
		c-2.5,0-4.2-2.1-4.2-4.8c0-3.4,2.2-5.2,4.4-5.2c1.9,0,2.9,1.1,3.3,1.9h0l0-1.6H542.3z M541.3,69.2c0-0.3,0-0.7-0.1-0.9
		c-0.4-1.2-1.4-2.2-3-2.2c-2.1,0-3.5,1.7-3.5,4.3c0,2.2,1.2,4.1,3.5,4.1c1.3,0,2.5-0.8,3-2.2c0.1-0.3,0.2-0.7,0.2-1V69.2z"/>
</g>
<circle class="st1" cx="19.3" cy="54.4" r="19.3"/>
<circle class="st1" cx="68.5" cy="15" r="14.8"/>
<path class="st1" d="M83.1,55.2c0.7,0.2,1.3,0.5,1.9,0.8c2.8-9.3,1.4-19.3-3.9-27.5c-0.5,0.5-1,0.9-1.6,1.4
	C84.3,37.4,85.6,46.6,83.1,55.2L83.1,55.2z"/>
<path class="st1" d="M67.3,74.1c-10.3,5.2-22.7,4.2-32-2.6c-0.5,0.5-1.1,0.9-1.6,1.4c10.1,7.6,23.5,8.7,34.7,3
	C68,75.3,67.6,74.7,67.3,74.1z"/>
<circle class="st1" cx="79.1" cy="67.9" r="10.7"/>
<path class="st1" d="M49.9,15c0-0.5,0-1,0.1-1.4c-11.2,1.2-21,7.9-26.1,18c0.7,0.1,1.4,0.3,2.1,0.5c4.8-9.1,13.8-15.3,24-16.5
	C50,15.4,49.9,15.2,49.9,15z"/>
</svg>
